<svg width="146" height="22" viewBox="0 0 146 22" fill="none" xmlns="http://www.w3.org/2000/svg">
<path d="M5.53098 5.89546C5.45008 5.54254 5.45008 5.17649 5.53098 4.82356C5.60829 4.40078 5.8487 4.02313 6.20261 3.76851C6.55652 3.51389 6.99693 3.40173 7.43299 3.45517C7.68898 3.43334 7.94677 3.46577 8.18875 3.55025C8.43074 3.63472 8.65121 3.76924 8.83511 3.94463C9.01901 4.12001 9.162 4.33212 9.25431 4.56647C9.34663 4.80082 9.38609 5.05188 9.37 5.30249V6.55685H14.5626V5.13145C14.5626 0.706999 10.4785 0 7.56135 0C3.86235 0 0.84015 1.19734 0.291719 4.56129C0.111337 5.46886 0.111337 6.40188 0.291719 7.30946C1.20188 11.4602 8.5882 12.669 9.62671 15.2917C9.77763 15.7787 9.77763 16.2985 9.62671 16.7855C9.5308 17.2245 9.26761 17.6113 8.89055 17.8675C8.51349 18.1238 8.0508 18.2302 7.59635 18.1653C7.33078 18.1967 7.0614 18.1716 6.80669 18.0917C6.55198 18.0118 6.31796 17.879 6.12068 17.7025C5.92339 17.5259 5.76751 17.3098 5.66371 17.0688C5.55991 16.8279 5.51065 16.5679 5.51932 16.3066V14.3224H0V15.8733C0 20.4346 3.65232 21.7915 7.56135 21.7915C11.4704 21.7915 14.4109 20.5372 14.9127 17.1276C15.0969 16.0288 15.0969 14.9081 14.9127 13.8093C14.0375 9.53309 6.13776 8.26733 5.57766 5.89546H5.53098ZM73.2564 5.89546C73.1872 5.54904 73.1872 5.19279 73.2564 4.84637C73.3336 4.4258 73.5723 4.04994 73.9237 3.79561C74.275 3.54127 74.7125 3.42765 75.1467 3.47798C75.3997 3.45766 75.6543 3.49102 75.8929 3.57578C76.1315 3.66053 76.3486 3.79468 76.5292 3.96903C76.7098 4.14339 76.8498 4.35383 76.9395 4.58595C77.0291 4.81807 77.0664 5.06639 77.0487 5.3139V6.55685H82.183V5.18846C82.183 0.798225 78.1573 0.114032 75.2517 0.114032C71.5878 0.114032 68.5889 1.25435 68.0405 4.5955C67.8566 5.48739 67.8566 6.40616 68.0405 7.29806C68.9273 11.4146 76.2086 12.612 77.3755 15.2119C77.5144 15.6967 77.5144 16.2095 77.3755 16.6943C77.2121 17.3785 76.7453 18.0513 75.3684 18.0513C75.1055 18.0841 74.8384 18.0612 74.5854 17.984C74.3323 17.9068 74.0993 17.7772 73.9022 17.6041C73.705 17.4309 73.5484 17.2182 73.443 16.9805C73.3376 16.7429 73.2859 16.4858 73.2914 16.2268V14.2768H67.7371V15.8277C67.7371 20.3205 71.3427 21.6775 75.2167 21.6775C79.0908 21.6775 82.0079 20.446 82.498 17.1162C82.6843 16.0253 82.6843 14.9117 82.498 13.8207C81.5762 9.5901 73.7931 8.29014 73.2097 5.94107L73.2564 5.89546ZM120.456 17.025L115.556 0.649983H107.831V20.7767H112.942L112.65 3.8885L117.913 20.7881H125.311V0.649983H120.176L120.456 17.025ZM22.2756 0.649983L18.4249 20.9933H24.0376L26.9431 2.15521L29.7786 20.9933H35.368L31.5289 0.649983H22.2756ZM53.7112 0.649983L51.0858 16.5461L48.4603 0.649983H39.9655L39.5687 20.9933H44.7613L44.913 2.16661L48.437 20.9933H53.7112L57.2935 2.15521L57.4336 20.9933H62.6495L62.1827 0.661386L53.7112 0.649983ZM102.067 0.649983H96.8039V15.6908C96.8121 15.9392 96.7925 16.1878 96.7456 16.432C96.6205 16.8547 96.3583 17.2263 95.9984 17.4908C95.6385 17.7552 95.2005 17.8982 94.7502 17.8982C94.2999 17.8982 93.8619 17.7552 93.502 17.4908C93.1421 17.2263 92.8799 16.8547 92.7549 16.432C92.7248 16.1744 92.7248 15.9143 92.7549 15.6566V0.649983H87.4106V15.2233C87.4106 15.5996 87.4106 16.3636 87.4106 16.5689C87.7723 20.3661 90.8412 21.5977 94.6569 21.5977C98.4725 21.5977 101.553 20.3661 101.926 16.5689C101.959 16.1209 101.959 15.6713 101.926 15.2233L102.067 0.649983ZM138.24 9.5673V12.5321H140.363V15.4742C140.393 15.7318 140.393 15.9919 140.363 16.2496C140.211 16.6829 139.924 17.059 139.542 17.3251C139.16 17.5913 138.703 17.7344 138.234 17.7344C137.765 17.7344 137.308 17.5913 136.926 17.3251C136.544 17.059 136.257 16.6829 136.104 16.2496C136.086 15.9914 136.086 15.7323 136.104 15.4742V6.16914C136.098 5.84741 136.129 5.52602 136.198 5.21127C136.296 4.76044 136.561 4.36094 136.942 4.08945C137.323 3.81796 137.794 3.69361 138.263 3.74025C138.735 3.68255 139.213 3.80235 139.598 4.07542C139.984 4.3485 140.249 4.75448 140.34 5.21127C140.387 5.47107 140.41 5.73433 140.41 5.99809V7.13841H145.649V6.46562C145.673 6.0174 145.673 5.56827 145.649 5.12004C145.253 1.31137 142.032 0.102629 138.345 0.102629C134.657 0.102629 131.495 1.32277 131.04 5.12004C131.04 5.47354 130.935 6.10072 130.935 6.46562V15.018C130.936 15.4677 130.963 15.917 131.017 16.3636C131.355 20.0697 134.646 21.381 138.333 21.381C142.02 21.381 145.334 20.0697 145.649 16.3636C145.649 15.6794 145.719 15.3943 145.731 15.018V9.5901L138.24 9.5673Z" fill="white"/>
</svg>
