<svg xmlns="http://www.w3.org/2000/svg" width="24" height="24" viewBox="0 0 24 24" fill="none" stroke="currentColor" stroke-width="2" stroke-linecap="round" stroke-linejoin="round">
  <path d="M12 6a1 1 0 1 0 0-2 1 1 0 0 0 0 2ZM12 13a1 1 0 1 0 0-2 1 1 0 0 0 0 2ZM12 20a1 1 0 1 0 0-2 1 1 0 0 0 0 2ZM19 6a1 1 0 1 0 0-2 1 1 0 0 0 0 2ZM19 13a1 1 0 1 0 0-2 1 1 0 0 0 0 2ZM19 20a1 1 0 1 0 0-2 1 1 0 0 0 0 2ZM5 6a1 1 0 1 0 0-2 1 1 0 0 0 0 2ZM5 13a1 1 0 1 0 0-2 1 1 0 0 0 0 2ZM5 20a1 1 0 1 0 0-2 1 1 0 0 0 0 2Z"></path>
</svg>