<svg width="107" height="16" viewBox="0 0 107 16" fill="none" xmlns="http://www.w3.org/2000/svg">
<path d="M4.06101 4.32862C4.00161 4.06949 4.00161 3.80073 4.06101 3.5416C4.11777 3.23118 4.29429 2.9539 4.55414 2.76695C4.81399 2.58 5.13735 2.49765 5.45752 2.53689C5.64547 2.52086 5.83475 2.54467 6.01242 2.6067C6.1901 2.66872 6.35198 2.76749 6.487 2.89626C6.62202 3.02503 6.72701 3.18077 6.79479 3.35284C6.86257 3.5249 6.89155 3.70924 6.87973 3.89325V4.81423H10.6923V3.76766C10.6923 0.5191 7.69365 0 5.55176 0C2.83586 0 0.616863 0.879121 0.214188 3.34903C0.0817471 4.0154 0.0817471 4.70045 0.214188 5.36682C0.882457 8.41444 6.30571 9.30194 7.06822 11.2276C7.17903 11.5852 7.17903 11.9669 7.06822 12.3244C6.9978 12.6467 6.80456 12.9307 6.52771 13.1189C6.25086 13.307 5.91113 13.3852 5.57747 13.3375C5.38248 13.3606 5.18469 13.3421 4.99768 13.2835C4.81066 13.2248 4.63884 13.1273 4.49398 12.9977C4.34913 12.8681 4.23467 12.7094 4.15846 12.5325C4.08225 12.3555 4.04608 12.1646 4.05245 11.9728V10.516H0V11.6546C0 15.0037 2.68164 16 5.55176 16C8.42189 16 10.5809 15.079 10.9493 12.5756C11.0846 11.7689 11.0846 10.946 10.9493 10.1392C10.3068 6.99948 4.50653 6.07012 4.09528 4.32862H4.06101ZM53.787 4.32862C53.7362 4.07427 53.7362 3.8127 53.787 3.55835C53.8437 3.24955 54.019 2.97359 54.277 2.78685C54.5349 2.60011 54.8561 2.51669 55.1749 2.55364C55.3607 2.53872 55.5476 2.56321 55.7228 2.62544C55.898 2.68767 56.0574 2.78617 56.19 2.91418C56.3226 3.0422 56.4254 3.19671 56.4912 3.36714C56.5571 3.53757 56.5844 3.71989 56.5715 3.90162V4.81423H60.3412V3.80952C60.3412 0.586081 57.3854 0.0837257 55.2521 0.0837257C52.5619 0.0837257 50.36 0.920983 49.9573 3.37415C49.8223 4.029 49.8223 4.7036 49.9573 5.35845C50.6085 8.38095 55.9546 9.26007 56.8114 11.169C56.9134 11.525 56.9134 11.9015 56.8114 12.2575C56.6914 12.7598 56.3487 13.2538 55.3377 13.2538C55.1447 13.2779 54.9486 13.2611 54.7628 13.2044C54.577 13.1477 54.4059 13.0526 54.2612 12.9254C54.1164 12.7983 54.0014 12.6421 53.924 12.4676C53.8467 12.2931 53.8087 12.1043 53.8127 11.9142V10.4825H49.7346V11.6211C49.7346 14.9199 52.3819 15.9163 55.2264 15.9163C58.0708 15.9163 60.2127 15.012 60.5725 12.5672C60.7093 11.7662 60.7093 10.9486 60.5725 10.1476C59.8957 7.04134 54.1811 6.08687 53.7527 4.36211L53.787 4.32862ZM88.4427 12.5003L84.8443 0.477237H79.1726V15.2548H82.9252L82.711 2.85505L86.575 15.2632H92.0068V0.477237H88.2371L88.4427 12.5003ZM16.3554 0.477237L13.5281 15.4139H17.6491L19.7824 1.58242L21.8644 15.4139H25.9682L23.1495 0.477237H16.3554ZM39.4364 0.477237L37.5087 12.1486L35.581 0.477237H29.3438L29.0525 15.4139H32.8651L32.9765 1.59079L35.5639 15.4139H39.4364L42.0666 1.58242L42.1694 15.4139H45.9991L45.6564 0.48561L39.4364 0.477237ZM74.9403 0.477237H71.0763V11.5207C71.0823 11.7031 71.0679 11.8855 71.0335 12.0649C70.9417 12.3753 70.7491 12.6481 70.4849 12.8422C70.2207 13.0364 69.899 13.1414 69.5684 13.1414C69.2378 13.1414 68.9162 13.0364 68.6519 12.8422C68.3877 12.6481 68.1952 12.3753 68.1034 12.0649C68.0813 11.8757 68.0813 11.6847 68.1034 11.4956V0.477237H64.1794V11.1774C64.1794 11.4537 64.1794 12.0147 64.1794 12.1654C64.445 14.9534 66.6983 15.8577 69.4999 15.8577C72.3015 15.8577 74.5633 14.9534 74.8375 12.1654C74.8612 11.8364 74.8612 11.5063 74.8375 11.1774L74.9403 0.477237ZM101.5 7.02459V9.20146H103.059V11.3616C103.081 11.5508 103.081 11.7418 103.059 11.9309C102.947 12.2491 102.736 12.5252 102.456 12.7206C102.175 12.9161 101.84 13.0211 101.495 13.0211C101.151 13.0211 100.815 12.9161 100.535 12.7206C100.255 12.5252 100.044 12.2491 99.9318 11.9309C99.9182 11.7414 99.9182 11.5511 99.9318 11.3616V4.52957C99.927 4.29334 99.95 4.05737 100 3.82627C100.072 3.49525 100.267 3.20193 100.547 3.0026C100.827 2.80326 101.172 2.71196 101.517 2.74621C101.864 2.70384 102.214 2.7918 102.497 2.9923C102.78 3.1928 102.975 3.49088 103.042 3.82627C103.076 4.01702 103.093 4.21032 103.093 4.40398V5.24124H106.94V4.74725C106.958 4.41815 106.958 4.08839 106.94 3.75929C106.649 0.962847 104.284 0.0753529 101.577 0.0753529C98.8694 0.0753529 96.5476 0.971219 96.2135 3.75929C96.2135 4.01884 96.1364 4.47933 96.1364 4.74725V11.0267C96.137 11.3569 96.157 11.6867 96.1963 12.0147C96.4448 14.7357 98.8608 15.6986 101.568 15.6986C104.276 15.6986 106.709 14.7357 106.94 12.0147C106.94 11.5123 106.991 11.303 107 11.0267V7.04134L101.5 7.02459Z" fill="black"/>
</svg>
